<?xml version="1.0" encoding="UTF-8" standalone="no"?>
<svg
   version="1.1"
   id="svg1"
   width="2000"
   height="2000"
   viewBox="0 0 2000 2000"
   xmlns="http://www.w3.org/2000/svg">
  <defs>
    <linearGradient id="bg-grad" x1="0%" y1="0%" x2="100%" y2="100%">
      <stop offset="0%" stop-color="#2C2C2E" />
      <stop offset="100%" stop-color="#1C1C1E" />
    </linearGradient>
    <filter id="shadow" x="-10%" y="-10%" width="120%" height="120%">
      <feDropShadow dx="0" dy="8" stdDeviation="15" flood-color="#000000" flood-opacity="0.4"/>
    </filter>
  </defs>

  <!-- Background Squircle -->
  <rect width="2000" height="2000" rx="450" fill="url(#bg-grad)" stroke="#4A4A4C" stroke-width="4"/>

  <!-- Logo Group -->
  <g transform="translate(300, 421.5) scale(0.71)" filter="url(#shadow)">
    <!-- Wii -->
    <path
       id="path1"
       style="fill:#E0E0E0;fill-opacity:1;stroke-width:1.05269"
       d="m 904.26594,300.50621 -74.98816,0.65588 -74.98814,0.65587 -0.65588,1.2727 c -0.36135,0.69922 -1.73314,6.48148 -3.04911,12.85029 -4.24441,20.5414 -11.28306,51.0596 -16.62932,72.10968 -7.76372,30.5685 -13.37336,54.20168 -17.6162,74.21508 -2.08665,9.84271 -9.42153,40.63407 -16.30034,68.42525 -6.87883,27.79117 -15.1813,62.84595 -18.44892,77.89951 -11.72076,53.99639 -17.91988,81.91532 -25.82806,116.32291 -2.99411,13.02712 -5.66769,24.86995 -5.94197,26.3174 -1.42025,7.49533 -5.19557,11.96911 -8.08028,9.57501 -3.16646,-2.62792 -12.30578,-34.50542 -30.20948,-105.37035 -3.43754,-13.6061 -6.99706,-27.34378 -7.90962,-30.52818 -0.91255,-3.18441 -2.03183,-7.21097 -2.48781,-8.94792 -0.45599,-1.73695 -4.40881,-16.42206 -8.78549,-32.63358 -4.3767,-16.21152 -9.68485,-36.81804 -11.79555,-45.79228 C 576.4275,519.99869 565.46388,476.1579 551.10901,419.80012 533.66055,351.29671 518.534,330.64748 475.81864,317.02038 l -8.94793,-2.8538 -10.57013,-0.56952 -10.57014,-0.56747 -8.73203,1.77026 c -29.29188,5.93531 -53.11542,23.69788 -67.46507,50.30119 -8.12871,15.0701 -12.55004,30.30886 -22.08195,76.11075 -1.68691,8.10576 -6.16009,27.29115 -9.93893,42.63419 -6.5623,26.64461 -12.60741,52.54558 -14.37382,61.58272 -0.45269,2.31594 -2.06956,9.42163 -3.59192,15.79045 -1.52236,6.3688 -3.19532,13.71136 -3.71939,16.31678 -0.98769,4.91027 -4.55252,20.21163 -8.95203,38.42341 -4.35053,18.00901 -7.56107,31.71615 -13.68094,58.42463 -3.25028,14.18508 -6.5817,28.39648 -7.40382,31.58088 -0.82214,3.18441 -2.43012,10.05326 -3.57342,15.2641 -1.14327,5.21085 -3.56882,16.00936 -5.38889,23.99612 l -3.30818,14.52186 -2.47753,2.84762 -2.47755,2.84764 -1.90595,-1.14523 c -2.26139,-1.35893 -6.53154,-13.50766 -10.14248,-28.85661 -1.43019,-6.07933 -3.59711,-14.84302 -4.81526,-19.47488 -1.21816,-4.63186 -9.26348,-37.08123 -17.87939,-72.10969 -18.72496,-76.12747 -23.94747,-97.25655 -38.38023,-155.27267 -6.04944,-24.31728 -13.15145,-53.21379 -15.78221,-64.21446 -2.63075,-11.00068 -8.17026,-33.2652 -12.30955,-49.47672 -4.1393,-16.21152 -7.67294,-30.18605 -7.85206,-31.05453 -0.1791,-0.86848 -1.75958,-7.50046 -3.51172,-14.73775 -1.75215,-7.23728 -3.76958,-16.00098 -4.48423,-19.47487 -0.71466,-3.4739 -1.68007,-6.74723 -2.14446,-7.2743 l -0.84298,-0.95811 -74.258253,-0.0947 L 0,301.20316 l 0.01031293,1.05269 c 0.0060244,0.57899 1.68899777,6.5004 3.73994967,13.1587 5.9573971,19.34036 9.2173244,30.31817 17.8135914,60.00368 4.443007,15.34305 10.607955,35.94957 13.701497,45.79229 8.398074,26.72009 12.408868,39.94963 18.987595,62.6354 3.274073,11.29018 8.478993,28.5807 11.565263,38.42341 6.019594,19.19765 17.080706,55.87062 18.416016,61.05638 1.139537,4.42554 11.909233,40.82248 16.197545,54.7402 5.12355,16.62853 16.84994,55.82946 23.30117,77.89951 3.04633,10.42169 6.7491,22.73823 8.23035,27.37009 3.25294,10.17177 13.92323,45.76046 23.82754,79.47856 19.32318,65.78356 44.52844,97.81053 85.80295,109.02395 l 6.31618,1.71682 13.7714,0.55312 13.76935,0.55506 8.74025,-1.77229 c 28.46268,-5.7673 55.00112,-28.01521 69.77398,-58.49455 5.1096,-10.54212 10.21572,-27.54262 18.17957,-60.53003 3.63425,-15.05355 8.75973,-35.89693 11.39051,-46.31862 10.80366,-42.79803 18.80212,-75.97092 23.35052,-96.84804 2.64895,-12.15865 5.7158,-25.65947 6.8158,-30.00184 1.10001,-4.34238 2.26306,-9.0795 2.58445,-10.52697 0.3214,-1.44745 2.47686,-11.15857 4.79059,-21.58026 2.31372,-10.4217 5.61528,-24.63309 7.33597,-31.58089 3.28107,-13.24809 8.0932,-35.20201 13.72822,-62.63542 1.84338,-8.97423 4.14811,-19.15577 5.12163,-22.62474 l 1.77026,-6.30589 1.62427,-0.31458 1.62633,-0.31251 1.78876,3.46238 c 1.60614,3.11084 5.41131,18.0936 18.6648,73.46667 5.94774,24.84963 22.34615,88.35392 25.61012,99.17959 3.29563,10.93067 8.60926,31.06945 18.55172,70.30448 4.03477,15.92203 8.79828,34.39684 10.58452,41.05515 1.78624,6.6583 5.5926,21.10656 8.45858,32.10723 15.22183,58.42696 22.11818,76.36486 36.024,93.68995 15.33501,19.1057 36.28002,31.48341 60.70479,35.87387 l 7.89522,1.41869 9.62024,-0.49961 c 23.95171,-1.24541 43.70841,-10.8223 65.90453,-31.94479 l 9.38587,-8.93352 6.14141,-9.32212 6.14139,-9.32006 4.86051,-12.14507 c 4.13574,-10.33483 13.63159,-40.74392 20.50496,-65.65986 1.03817,-3.76339 3.09403,-10.86909 4.56854,-15.79045 1.47448,-4.92135 4.18746,-14.63248 6.02832,-21.58027 1.84086,-6.94779 4.9523,-18.08005 6.91449,-24.73836 3.48224,-11.81628 8.53584,-29.48238 19.42348,-67.8989 2.95363,-10.42169 7.69985,-27.00164 10.54752,-36.84436 2.84766,-9.84271 8.01521,-28.31752 11.48302,-41.05514 10.84299,-39.82739 15.41616,-56.18101 21.63373,-77.37317 5.72706,-19.52033 8.3536,-28.70201 22.58772,-78.95221 3.36212,-11.86914 7.10884,-24.6594 8.32701,-28.42279 2.11448,-6.5324 7.3788,-24.98061 21.29446,-74.62628 3.47143,-12.38476 6.76578,-23.36675 7.32159,-24.40528 0.5558,-1.03854 1.01158,-2.66933 1.01158,-3.62275 z m 340.14426,0.97456 -10.3255,0.48934 -10.3255,0.48935 -7.2907,2.47547 c -24.2401,8.23224 -45.5375,32.44206 -49.7338,56.53513 l -1.5112,8.68475 1.1206,8.06792 c 4.5199,32.49626 28.5041,57.62198 62.1522,65.11089 l 6.8426,1.52353 7.2476,-0.52839 c 30.844,-2.24364 59.1469,-24.89275 67.0353,-53.64638 l 2.2884,-8.34756 -0.4873,-11.09031 -0.4894,-11.09032 -2.72,-7.72045 c -8.7563,-24.84916 -31.6591,-44.63003 -57.5798,-49.72962 z m -250.37725,0.0947 c -2.33348,-0.11999 -4.67492,-0.12145 -7.01728,0.002 -8.6488,0.456 -17.30197,2.60678 -25.53611,6.70477 -25.45239,12.66712 -42.47588,37.89544 -42.47588,62.94782 v 8.00214 l 2.17324,8.35783 c 1.90552,7.32658 8.45245,21.29538 11.9004,25.39218 15.204,18.06511 30.97433,27.47302 52.24621,31.16967 31.22817,5.42689 71.46537,-23.98347 78.59027,-57.44389 l 1.6202,-7.60532 -0.6332,-8.65802 c -2.8109,-38.44419 -35.866,-67.06947 -70.86785,-68.86935 z m -66.08135,225.43111 0.26112,95.53217 c 0.14399,52.54275 0.38085,168.61258 0.52636,257.93315 l 0.26522,162.401 -90.17822,-0.2859 -90.17823,-0.2858 5.43619,5.9502 c 2.9899,3.2728 7.93562,8.9573 10.98956,12.6324 3.05396,3.6751 7.55423,9.0902 10.00062,12.0341 2.44639,2.9438 6.8158,8.3233 9.71071,11.9539 2.89491,3.6304 6.92148,8.6766 8.94792,11.2136 2.02643,2.5369 5.34243,6.757 7.36888,9.3776 2.02644,2.6207 5.34243,6.841 7.36887,9.3777 2.02644,2.5366 5.81614,7.3107 8.42156,10.6092 2.60543,3.2985 6.27671,7.8924 8.1584,10.2103 1.8817,2.3178 3.42126,4.627 3.42126,5.1318 0,0.5049 2.01328,3.2462 4.47396,6.0922 2.46068,2.8459 6.60567,7.8873 9.21109,11.2014 2.60542,3.3139 6.39513,8.09 8.42157,10.6153 2.02643,2.5253 5.57929,7.0209 7.89522,9.9882 2.31593,2.9672 5.97074,7.6001 8.12138,10.2968 2.15063,2.6966 5.70349,7.1638 7.89522,9.9266 2.19172,2.7626 5.42122,6.7892 7.17766,8.9478 1.75645,2.1586 4.59873,5.7379 6.31618,7.9528 1.71745,2.215 4.54427,5.836 6.28122,8.0474 1.73696,2.2114 4.81609,6.1439 6.84253,8.7402 2.02644,2.5962 6.60389,8.2763 10.17332,12.6221 3.56943,4.3459 7.25463,9.3775 8.18719,11.1809 0.93254,1.8033 2.08035,3.2793 2.55154,3.2793 0.47118,0 1.34469,1.0659 1.94091,2.3686 0.59621,1.3027 3.15887,4.9017 5.69526,7.998 2.53636,3.0966 6.50657,7.9408 8.82249,10.7635 2.31594,2.8227 5.86878,7.2883 7.89522,9.9245 2.02644,2.6361 5.57929,7.0943 7.89523,9.906 2.31592,2.8115 6.57935,8.0925 9.47426,11.7359 2.89491,3.6435 7.39519,9.1384 10.00061,12.2109 2.60543,3.0724 6.632,7.9655 8.94792,10.8744 2.31591,2.9088 6.10566,7.6335 8.42157,10.4982 2.31592,2.8646 6.10566,7.633 8.42158,10.5968 4.45465,5.7009 9.36025,11.8641 16.30235,20.4803 2.3239,2.8843 4.2252,5.7865 4.2252,6.4499 0,0.6635 0.7828,1.8563 1.7394,2.6502 0.9566,0.794 3.6804,3.9692 6.053,7.0564 5.9244,7.7088 9.5687,12.3045 16.9459,21.3705 3.474,4.2691 7.7374,9.6025 9.4743,11.8531 1.737,2.2507 4.5793,5.8836 6.3162,8.0721 1.7369,2.1884 5.2898,6.6964 7.8953,10.017 2.6053,3.3204 6.2733,7.9767 8.1521,10.3481 1.8788,2.3713 4.6027,5.9695 6.051,7.9959 5.866,8.2079 7.5777,10.5086 12.1142,16.2819 2.6054,3.3156 5.6846,7.5829 6.8426,9.4804 1.1579,1.8975 3.0528,4.7084 4.2107,6.2483 4.1531,5.5231 7.4369,10.015 11.5489,15.7987 2.2983,3.2331 4.3249,5.8783 4.5048,5.8783 0.5677,0 7.0813,-7.6068 7.6321,-8.913 0.5409,-1.283 3.5951,-5.337 8.6847,-11.5283 1.5921,-1.9368 2.8948,-4.0068 2.8948,-4.5993 0,-0.5926 1.6395,-3.1367 3.6434,-5.6521 5.3759,-6.7483 13.7158,-17.6253 19.8326,-25.8651 1.622,-2.185 6.0104,-7.9989 9.7519,-12.9202 3.7415,-4.9214 8.3364,-10.9936 10.2103,-13.4939 1.8738,-2.5001 5.3017,-6.8692 7.6177,-9.7085 2.3159,-2.8394 6.2168,-7.6625 8.6682,-10.7183 2.4515,-3.0556 6.5965,-8.1317 9.2111,-11.2815 2.6147,-3.1499 4.7535,-6.3381 4.7535,-7.0831 0,-0.745 1.1111,-2.0809 2.4694,-2.9709 1.3582,-0.89 2.9673,-2.7116 3.5754,-4.0464 0.6082,-1.3347 2.9316,-4.6241 5.1628,-7.3112 2.2313,-2.6872 5.4777,-6.8251 7.2147,-9.1948 1.737,-2.3696 5.0529,-6.6396 7.3688,-9.4885 2.3159,-2.8488 5.8688,-7.329 7.8952,-9.9574 2.0265,-2.6284 5.3424,-6.8465 7.3689,-9.3736 2.0264,-2.5272 5.3425,-6.8116 7.3689,-9.5195 2.0265,-2.7079 5.3424,-7.0024 7.3689,-9.5442 2.0264,-2.5417 5.3424,-6.8301 7.3688,-9.5297 2.0264,-2.6997 5.1056,-6.6967 6.8426,-8.8821 1.7369,-2.1854 5.0529,-6.4597 7.3688,-9.499 2.3159,-3.0394 5.9872,-7.6256 8.1585,-10.1898 2.1711,-2.5644 3.9476,-5.0778 3.9476,-5.5862 0,-0.5087 1.7763,-3.0425 3.9476,-5.6296 2.1711,-2.5871 5.7494,-6.9975 7.9506,-9.8011 2.2013,-2.8036 7.1753,-9.0555 11.0533,-13.8947 3.8781,-4.8393 7.524,-9.5764 8.103,-10.527 0.579,-0.9506 2.9475,-3.8839 5.2635,-6.5176 4.0603,-4.6176 11.0545,-13.2669 18.122,-22.413 4.1502,-5.3712 11.3183,-14.3243 15.5992,-19.4811 2.9401,-3.5419 4.6909,-5.7896 12.0711,-15.4985 1.4474,-1.9043 4.7634,-6.1556 7.3688,-9.4475 2.6055,-3.292 5.9215,-7.7787 7.3689,-9.9718 2.8031,-4.2472 6.8749,-9.6407 12.0711,-15.992 1.7563,-2.1468 4.851,-6.0684 6.8775,-8.7135 2.0264,-2.6451 5.5792,-7.1004 7.8952,-9.8999 2.3159,-2.7995 6.3424,-7.8454 8.9479,-11.2136 2.6054,-3.3684 6.395,-8.1125 8.4215,-10.5434 2.0264,-2.4308 5.3425,-6.6472 7.3689,-9.3694 2.0265,-2.7223 5.8161,-7.4438 8.4216,-10.4921 2.6054,-3.0481 7.5794,-9.0011 11.0533,-13.2286 3.4738,-4.2274 7.6638,-9.2685 9.3098,-11.2034 4.7781,-5.6172 9.0106,-12.3315 8.3989,-13.3211 l -0.5634,-0.9108 -93.3137,0.3432 -93.3157,0.3434 V 784.65389 527.00652 h -63.7518 -63.7519 l 0.4647,258.38961 0.4647,258.38967 -60.0139,0.067 -60.0141,0.069 -0.8059,-82.92033 c -0.4436,-45.60685 -0.5169,-161.91413 -0.1624,-258.45952 l 0.6435,-175.53623 h -63.91635 z m 1043.5939,35.2941 c -0.072,3.63907 -0.1497,7.2789 -0.2343,10.91762 -0.4936,10.34393 -0.6586,20.71454 -1.0384,31.07303 0.4847,0.39387 0.9742,0.7946 1.4701,1.20279 z" />
    <!-- U -->
    <path
       id="path2"
       style="fill:#00A0C6;fill-opacity:1;stroke-width:1.05269"
       d="m 1826.1399,300.67686 0.6702,10.26378 c 0.3683,5.64508 0.9696,70.89909 1.3364,145.00889 l 0.6683,134.7451 -1.2069,10.95257 c -4.9437,44.87967 -36.2299,79.76357 -80.8089,90.10214 -20.5971,4.77677 -111.6916,5.10637 -133.5423,0.48318 -28.6804,-6.06828 -47.3344,-15.22509 -63.0733,-30.96407 -18.3601,-18.36013 -28.099,-41.41482 -30.2589,-71.62651 l -1.1287,-15.79044 0.4584,-135.93761 0.4586,-135.93555 -5.3355,-0.64149 c -2.9352,-0.35274 -17.8909,-0.6455 -33.2339,-0.6497 l -27.8964,-0.008 -8.9193,1.57082 c -31.0937,5.47238 -54.7404,27.49475 -61.6093,57.3783 l -1.8134,7.89522 -0.4709,24.73835 c -0.2584,13.6061 -0.026,83.24195 0.5161,154.74633 l 0.9848,130.00797 2.2967,10.52695 c 11.3917,52.19418 52.007,93.27825 101.0752,102.24106 l 8.9952,1.64278 22.1067,0.69289 v -0.002 c 12.1586,0.38133 89.1369,0.56098 171.063,0.39888 l 148.9565,-0.29402 14.0305,-1.0568 c 65.4472,-4.92307 114.0047,-52.26772 120.3158,-117.30983 L 1972,661.2237 l -0.6724,-146.32476 -0.6724,-146.32475 -1.5378,-8.42157 -1.5359,-8.42156 -4.7412,-9.47427 -4.7433,-9.47426 -6.123,-6.31618 c -14.3339,-14.78523 -25.5768,-20.99471 -43.9623,-24.28193 l -8.4216,-1.50502 -36.7252,-0.002 z M 146.7997,301.3903 c 1.37399,1.83039 2.73545,3.66918 4.08332,5.51844 -0.58085,-2.32329 -1.1864,-4.17327 -1.52559,-4.55826 l -0.84298,-0.95811 z m 1436.0069,0.55103 c -0.1101,0.17319 0.1376,55.97588 0.5491,124.00636 l 0.7483,123.6918 1.6223,7.60531 c 7.608,35.63831 38.9372,63.51449 78.3909,69.75346 33.6491,5.3211 72.5018,-13.6459 90.5792,-44.21941 l 4.591,-7.76363 2.4181,-9.52979 2.4179,-9.52977 -0.1667,-126.4983 c -0.091,-69.57445 -0.5615,-126.89375 -1.0465,-127.37622 -0.7839,-0.77995 -179.6078,-0.91876 -180.1036,-0.13981 z M 864.9461,1072.704 c -1.54009,0 -3.07986,0.01 -4.61994,0.012 1.00829,1.0472 2.01192,2.0989 3.01005,3.156 0.0295,-0.1422 0.0587,-0.2854 0.0884,-0.4297 0.51573,-0.9079 1.02147,-1.8209 1.52149,-2.7387 z" />
  </g>
</svg>
